<svg width="66" height="65" viewBox="0 0 66 65" fill="none" xmlns="http://www.w3.org/2000/svg">
<ellipse cx="33" cy="32.5" rx="33" ry="32.5" fill="#7C6A46"/>
<path d="M23.3187 37.0265L19.9062 33.6118C21.5042 32.05 23.38 30.8128 25.5336 29.9001C27.6873 28.9874 30.0094 28.5305 32.5 28.5294C34.9917 28.5294 37.3143 28.9926 39.468 29.9191C41.6217 30.8456 43.4969 32.1029 45.0938 33.6912L41.6812 37.0265C40.4896 35.8618 39.1083 34.9485 37.5375 34.2868C35.9667 33.625 34.2875 33.2941 32.5 33.2941C30.7125 33.2941 29.0333 33.625 27.4625 34.2868C25.8917 34.9485 24.5104 35.8618 23.3187 37.0265ZM16.4125 30.2765L13 26.9412C15.4917 24.4529 18.4031 22.5074 21.7344 21.1044C25.0656 19.7015 28.6542 19 32.5 19C36.3458 19 39.9344 19.7015 43.2656 21.1044C46.5969 22.5074 49.5083 24.4529 52 26.9412L48.5875 30.2765C46.5021 28.2382 44.0846 26.6431 41.3351 25.4911C38.5856 24.3391 35.6406 23.7636 32.5 23.7647C29.3583 23.7647 26.4127 24.3407 23.6632 25.4927C20.9137 26.6447 18.4968 28.2393 16.4125 30.2765ZM32.5 46L38.2281 40.3618C37.4969 39.6471 36.6437 39.0843 35.6687 38.6735C34.6937 38.2626 33.6375 38.0578 32.5 38.0588C31.3625 38.0588 30.3063 38.2642 29.3313 38.6751C28.3563 39.0859 27.5031 39.6481 26.7719 40.3618L32.5 46Z" fill="#FAFAFA"/>
</svg>
